<svg width="14" height="14" viewBox="0 0 14 14" fill="none" xmlns="http://www.w3.org/2000/svg">
<path opacity="0.4" fill-rule="evenodd" clip-rule="evenodd" d="M9.27469 12.1334C9.05948 13.1983 8.12304 13.9999 7.00002 13.9999C5.877 13.9999 4.94056 13.1983 4.72543 12.1334H0.500032L2.35713 8.39996V4.66657C2.35713 2.08931 4.43587 -4.80413e-05 7.00002 -4.80413e-05C9.56424 -4.80413e-05 11.6429 2.08931 11.6429 4.66657V8.39996L13.5 12.1334H9.27469ZM7.00002 13.0667C7.6056 13.0667 8.11569 12.6759 8.30763 12.1334H5.6925C5.88435 12.6759 6.39444 13.0667 7.00002 13.0667ZM10.7143 8.39996V4.66657C10.7143 2.60487 9.05138 0.933316 7.00002 0.933316C4.94865 0.933316 3.28573 2.60487 3.28573 4.66657V8.39996L1.89284 11.2H12.1071L10.7143 8.39996Z" fill="black"/>
</svg>
