<svg width="15" height="14" viewBox="0 0 15 14" fill="none" xmlns="http://www.w3.org/2000/svg">
<path opacity="0.5" fill-rule="evenodd" clip-rule="evenodd" d="M14.3637 13.8659C14.1867 14.04 13.8999 14.04 13.7229 13.8659L10.095 10.2957C9.08274 11.1041 7.79391 11.59 6.38867 11.59C3.13643 11.59 0.499939 8.99553 0.499939 5.79505C0.499939 2.59451 3.13643 -5.36442e-07 6.38867 -5.36442e-07C9.64091 -5.36442e-07 12.2775 2.59451 12.2775 5.79505C12.2775 7.29151 11.6961 8.65106 10.7498 9.67922L14.3637 13.2354C14.5406 13.4096 14.5406 13.6919 14.3637 13.8659ZM6.38867 0.89159C3.63669 0.89159 1.40582 3.08686 1.40582 5.79505C1.40582 8.50321 3.63669 10.6986 6.38867 10.6986C9.14057 10.6986 11.3714 8.50321 11.3714 5.79505C11.3714 3.08686 9.14057 0.89159 6.38867 0.89159Z" fill="black"/>
</svg>
